<?xml version="1.0" encoding="utf-8"?>
<svg viewBox="0.611 0.611 503.056 103.912" xmlns="http://www.w3.org/2000/svg">
  <path style="fill: rgb(216, 216, 216); stroke: rgb(0, 0, 0);" d="M -8.863 111.4 C -8.863 100.293 -8.863 87.411 -8.863 77.17 C -8.863 72.538 -8.935 68.145 -7.029 64.334 C -6.498 63.271 -3.973 63.688 -3.973 62.5 C 2.033 64.903 12.701 72.195 19.866 68.612 C 24 66.545 28.293 61.342 32.09 59.444 C 34.789 58.094 35.459 62.955 37.592 61.889 C 42.901 59.234 55.318 47.309 55.318 40.495 C 55.318 39.68 55.318 42.125 55.318 42.94 C 55.318 45.344 55.053 47.89 55.318 50.275 C 55.673 53.473 55.202 66.663 57.152 68.612 C 59.718 71.179 71.265 67.39 74.267 67.39 C 83.453 67.39 90.375 65.305 101.161 68.001 C 107.255 69.525 113.499 73.933 120.11 72.28 C 122.594 71.659 125.097 69.204 128.056 68.612 C 133.719 67.48 140.003 68.001 145.782 68.001 C 145.961 68.001 151.653 69.096 151.895 68.612 C 155.461 61.48 143.099 44.401 148.839 38.661 C 150.725 36.775 168.627 39.502 169.621 40.495 C 171.634 42.508 169.062 49.716 171.455 52.109 C 172.474 53.128 176.548 51.09 177.567 52.109 C 177.965 52.507 178.364 66.593 183.68 61.278 C 184.525 60.432 183.68 54.387 183.68 53.331 C 183.68 50.032 181.208 29.52 183.68 27.048 C 184.651 26.076 189.406 27.46 190.403 27.659 C 191.546 27.888 196.893 26.813 197.738 27.659 C 200.138 30.058 198.35 40.224 198.35 43.551 C 198.35 52.014 197.083 51.781 202.628 54.554 C 204.289 55.384 201.641 68.236 203.851 70.446 C 205.321 71.917 224.282 72.02 225.245 71.057 C 225.856 70.446 224.633 68.001 225.245 67.39 C 231.758 60.876 216.25 62.674 214.242 60.666 C 208.641 55.066 225.092 54.706 225.245 54.554 C 225.988 53.81 220.147 49.871 222.8 47.219 C 228.058 41.96 231.632 53.469 233.802 54.554 C 235.107 55.206 247.408 55.323 245.416 53.331 C 239.158 47.074 248.643 54.994 246.027 57.61 C 244.489 59.148 235.524 57.834 235.024 58.833 C 234.694 59.494 235.553 61.971 235.024 62.5 C 233.792 63.733 224.111 67.479 229.523 72.891 C 233.363 76.731 246.432 70.653 247.861 69.224 C 249.276 67.808 242.569 66.377 242.359 66.167 C 240.152 63.96 243.081 62.109 241.748 59.444 C 241.524 58.996 236.567 56.679 237.469 55.776 C 238.67 54.576 248.829 53.764 250.917 52.72 C 253.723 51.317 258.049 55.57 256.418 58.833 C 255.432 60.805 253.475 59.33 252.139 60.666 C 250.744 62.062 257.578 62.563 255.807 64.334 C 254.093 66.048 249.15 68.679 252.139 71.669 C 253.732 73.262 259.531 72.113 261.308 71.669 C 268.118 69.966 278.045 71.669 285.147 71.669 C 286.206 71.669 292.32 72.442 293.093 71.669 C 296.729 68.033 288.312 58.112 291.87 54.554 C 298.129 48.296 302.219 67.433 306.54 63.111 C 307.696 61.956 305.318 46.02 305.318 43.551 C 305.318 42.935 304.869 37.663 305.318 37.439 C 316.909 31.643 310.085 55.653 313.875 59.444 C 320.181 65.749 315.745 33.807 326.1 44.163 C 330.415 48.477 323.363 64.653 326.711 68.001 C 327.498 68.787 334.163 69.085 335.269 69.224 C 342.466 70.123 350.443 68.001 357.274 68.001 C 358.377 68.001 364.377 68.845 365.22 68.001 C 366.848 66.374 364.292 63.429 365.22 62.5 C 365.653 62.067 375.178 62.067 375.611 62.5 C 376.349 63.238 380.174 69.551 383.557 66.167 C 384.412 65.313 382.68 63.989 382.946 63.722 C 383.175 63.494 388.219 63.494 388.447 63.722 C 392.865 68.141 396.585 67.39 405.562 67.39 C 413.354 67.39 420.904 66.779 428.79 66.779 C 429.972 66.779 435.912 67.602 436.736 66.779 C 437.551 65.964 436.532 63.315 437.347 62.5 C 438.488 61.36 442.787 69.285 445.905 66.167 C 448.248 63.824 443.562 54.452 445.905 52.109 C 446.683 51.331 462.684 52.996 463.631 53.943 C 465.118 55.43 463.927 61.574 465.465 63.111 C 466.581 64.228 470.782 63.722 472.799 63.722 C 477.077 63.722 475.7 54.326 478.912 52.72 C 479.992 52.18 488.337 57.964 491.748 54.554 C 495.895 50.408 499.016 51.786 507.641 53.943 C 509.409 54.385 511.242 50.209 512.531 51.498 C 513.513 52.48 507.75 57.61 513.142 57.61 C 513.141 66.052 514.364 75.096 514.364 83.894 C 514.368 92.068 511.474 106.842 514.976 113.845"/>
</svg>